<?xml version="1.0" standalone="no"?>
<!DOCTYPE svg PUBLIC "-//W3C//DTD SVG 20010904//EN"
 "http://www.w3.org/TR/2001/REC-SVG-20010904/DTD/svg10.dtd">
<svg version="1.0" xmlns="http://www.w3.org/2000/svg"
 width="184.000000pt" height="182.000000pt" viewBox="0 0 184.000000 182.000000"
 preserveAspectRatio="xMidYMid meet">

<g transform="translate(0.000000,182.000000) scale(0.100000,-0.100000)"
fill="#000000" stroke="none">
<path d="M648 1523 c6 -2 18 -2 25 0 6 3 1 5 -13 5 -14 0 -19 -2 -12 -5z"/>
<path d="M538 1478 c-16 -5 -28 -17 -28 -25 0 -14 2 -15 18 -1 9 8 26 20 37
26 25 14 10 14 -27 0z"/>
<path d="M419 1410 c-27 -22 -16 -26 20 -6 13 7 19 16 13 20 -5 3 -21 -3 -33
-14z"/>
<path d="M280 1344 l-35 -14 39 5 c22 2 44 9 50 15 14 14 -11 12 -54 -6z"/>
<path d="M190 1320 c0 -5 5 -10 10 -10 6 0 10 5 10 10 0 6 -4 10 -10 10 -5 0
-10 -4 -10 -10z"/>
<path d="M301 1251 c13 -11 26 -18 28 -15 7 7 -21 34 -36 34 -10 0 -8 -6 8
-19z"/>
<path d="M397 1179 c7 -7 15 -10 18 -7 3 3 -2 9 -12 12 -14 6 -15 5 -6 -5z"/>
<path d="M473 1123 c9 -9 20 -13 24 -9 4 4 1 11 -7 16 -25 16 -35 11 -17 -7z"/>
<path d="M1250 1122 c0 -12 19 -26 26 -19 2 2 -2 10 -11 17 -9 8 -15 8 -15 2z"/>
<path d="M427 1015 c-4 -8 -2 -17 3 -20 6 -4 10 3 10 14 0 25 -6 27 -13 6z"/>
<path d="M134 1009 c-8 -14 11 -33 25 -25 6 4 11 11 11 16 0 13 -29 20 -36 9z"/>
<path d="M935 990 c3 -5 8 -10 11 -10 2 0 4 5 4 10 0 6 -5 10 -11 10 -5 0 -7
-4 -4 -10z"/>
<path d="M350 981 c0 -5 5 -13 10 -16 6 -3 10 -2 10 4 0 5 -4 13 -10 16 -5 3
-10 2 -10 -4z"/>
<path d="M265 970 c-3 -5 -1 -10 4 -10 6 0 11 5 11 10 0 6 -2 10 -4 10 -3 0
-8 -4 -11 -10z"/>
<path d="M690 965 c0 -2 10 -10 23 -16 20 -11 21 -11 8 4 -13 16 -31 23 -31
12z"/>
<path d="M400 920 c0 -5 5 -10 10 -10 6 0 10 5 10 10 0 6 -4 10 -10 10 -5 0
-10 -4 -10 -10z"/>
<path d="M815 890 c-3 -5 -2 -10 4 -10 5 0 13 5 16 10 3 6 2 10 -4 10 -5 0
-13 -4 -16 -10z"/>
<path d="M355 881 c-3 -5 -1 -12 5 -16 5 -3 10 1 10 9 0 18 -6 21 -15 7z"/>
<path d="M258 863 c7 -3 16 -2 19 1 4 3 -2 6 -13 5 -11 0 -14 -3 -6 -6z"/>
<path d="M855 860 c-10 -15 4 -47 22 -55 15 -5 14 -3 -1 14 -10 11 -16 27 -13
36 7 17 1 20 -8 5z"/>
<path d="M298 853 c6 -2 18 -2 25 0 6 3 1 5 -13 5 -14 0 -19 -2 -12 -5z"/>
<path d="M360 761 c0 -5 5 -13 10 -16 6 -3 10 -2 10 4 0 5 -4 13 -10 16 -5 3
-10 2 -10 -4z"/>
<path d="M421 744 c0 -11 3 -14 6 -6 3 7 2 16 -1 19 -3 4 -6 -2 -5 -13z"/>
<path d="M430 706 c0 -2 9 -26 21 -52 34 -80 118 -174 199 -222 l45 -27 -40
-7 c-22 -4 -50 -7 -62 -7 -21 -1 -22 1 -11 24 9 21 9 29 -5 42 -13 13 -24 14
-69 6 l-53 -10 53 -2 c65 -1 67 -15 11 -76 -46 -50 -39 -58 17 -20 41 28 74
35 55 11 -7 -8 -16 -28 -20 -44 -11 -37 9 -72 41 -72 19 0 19 2 -6 21 -21 16
-25 26 -20 47 9 36 20 49 52 60 31 10 88 -2 94 -21 11 -29 -13 -78 -45 -92
-27 -12 -29 -14 -9 -15 28 0 28 -1 -4 -58 -21 -38 -22 -42 -5 -22 12 14 29 43
39 65 10 22 29 63 43 92 13 29 30 54 39 56 8 2 -10 11 -40 22 -69 23 -117 50
-173 97 -48 40 -112 129 -122 171 -6 23 -25 48 -25 33z"/>
<path d="M1122 644 c10 -10 20 -16 22 -13 3 3 -5 11 -17 18 -21 13 -21 12 -5
-5z"/>
<path d="M415 600 c-3 -5 -2 -10 4 -10 5 0 13 5 16 10 3 6 2 10 -4 10 -5 0
-13 -4 -16 -10z"/>
<path d="M1271 544 c-18 -24 -37 -44 -42 -44 -5 0 -9 -5 -9 -11 0 -13 59 32
59 45 1 5 8 18 18 28 9 10 14 20 12 22 -2 2 -19 -16 -38 -40z"/>
<path d="M430 540 c0 -5 4 -10 9 -10 6 0 13 5 16 10 3 6 -1 10 -9 10 -9 0 -16
-4 -16 -10z"/>
<path d="M388 464 c-12 -27 -24 -53 -26 -57 -2 -4 15 2 37 14 44 22 54 34 21
24 -15 -5 -20 -2 -20 12 0 11 5 24 12 31 6 6 9 15 5 18 -4 4 -17 -15 -29 -42z"/>
<path d="M1310 496 c0 -2 7 -9 15 -16 12 -10 15 -10 15 4 0 9 -7 16 -15 16 -8
0 -15 -2 -15 -4z"/>
<path d="M1189 463 c-13 -16 -12 -17 4 -4 16 13 21 21 13 21 -2 0 -10 -8 -17
-17z"/>
<path d="M1110 420 c-8 -5 -10 -10 -5 -10 6 0 17 5 25 10 8 5 11 10 5 10 -5 0
-17 -5 -25 -10z"/>
<path d="M1020 390 c-30 -10 -48 -18 -39 -19 20 -1 81 19 94 30 11 11 13 11
-55 -11z"/>
<path d="M828 373 c6 -2 18 -2 25 0 6 3 1 5 -13 5 -14 0 -19 -2 -12 -5z"/>
<path d="M870 369 c0 -5 9 -9 20 -9 11 0 20 2 20 4 0 2 -9 6 -20 9 -11 3 -20
1 -20 -4z"/>
<path d="M1480 370 c0 -9 32 -30 46 -30 4 0 -1 9 -11 20 -19 21 -35 26 -35 10z"/>
<path d="M1540 334 c0 -13 66 -64 82 -64 7 0 4 6 -7 12 -11 6 -22 14 -25 17
-16 19 -50 43 -50 35z"/>
<path d="M451 296 c-12 -14 -5 -26 16 -26 15 0 18 26 4 34 -5 3 -14 0 -20 -8z"/>
<path d="M715 149 c-16 -5 -41 -11 -55 -12 -16 -2 -31 -14 -44 -37 l-20 -34
35 27 c19 14 62 33 94 40 41 9 54 15 41 20 -10 4 -18 7 -19 6 -1 0 -15 -5 -32
-10z"/>
<path d="M870 140 c0 -6 11 -8 28 -4 39 10 40 14 4 14 -18 0 -32 -5 -32 -10z"/>
</g>
</svg>
